#!OML:ASF F:\VICON\USERDATA\INSTALL\rory3\rory3.ASF
:FULLY-SPECIFIED
:DEGREES
308
root 5.48347 17.8689 6.70771 355.231 40.03 358.901
lowerback 12.1708 1.26709 -0.663208
upperback 1.15699 1.62474 0.191544
thorax -5.63453 0.824791 0.301024
lowerneck -9.3901 -10.2301 -14.1328
upperneck 32.8205 -15.7264 12.6881
head 15.3239 -6.92714 5.11057
rclavicle 1.4984e-013 -1.30204e-014
rhumerus -32.904 -11.2109 -77.5428
rradius 37.8266
rwrist -0.180836
rhand -22.8077 7.3808
rfingers 7.12502
rthumb 3.62879 -22.5681
lclavicle 1.4984e-013 -1.30204e-014
lhumerus -32.877 9.1358 81.014
lradius 32.7786
lwrist -7.55601
lhand -19.1113 22.0018
lfingers 7.12502
lthumb 7.19767 51.8594
rfemur -10.7549 1.21991 18.2006
rtibia 31.9018
rfoot -13.6424 3.2569
rtoes 1.88563
lfemur -9.49425 -5.20819 -18.5766
ltibia 35.5984
lfoot -17.1472 -18.3806
ltoes -12.0499
309
root 5.46854 17.8489 6.74628 355.269 39.5145 359.072
lowerback 12.0372 1.25043 -0.913109
upperback 1.26591 1.57982 0.34084
thorax -5.45595 0.809814 0.610173
lowerneck -9.46038 -10.1869 -14.2393
upperneck 32.8649 -15.5992 12.5719
head 15.3343 -6.89768 5.10162
rclavicle 6.87919e-014 -7.95139e-016
rhumerus -32.6934 -11.0917 -77.1998
rradius 37.9007
rwrist -0.449834
rhand -22.2287 6.94915
rfingers 7.12502
rthumb 4.18794 -22.9894
lclavicle 6.87919e-014 -7.95139e-016
lhumerus -32.7825 8.80247 81.6662
lradius 32.951
lwrist -6.92536
lhand -19.4602 22.4411
lfingers 7.12502
lthumb 6.86095 52.3099
rfemur -10.9543 1.23562 18.1793
rtibia 32.4693
rfoot -13.9339 3.70802
rtoes 1.81588
lfemur -9.31441 -5.55249 -19.3979
ltibia 34.9044
lfoot -17.3075 -18.5213
ltoes -11.3273
310
root 5.45338 17.8333 6.78614 355.208 38.9428 359.085
lowerback 11.8799 1.23942 -1.05615
upperback 1.3702 1.55731 0.493909
thorax -5.2665 0.802719 0.859296
lowerneck -9.47951 -10.1433 -14.2486
upperneck 32.8705 -15.4932 12.4506
head 15.3064 -6.86881 5.07008
rclavicle 6.24557e-014 -6.23687e-015
rhumerus -32.4628 -10.9881 -76.9108
rradius 37.8655
rwrist -0.638076
rhand -21.2719 6.42713
rfingers 7.12502
rthumb 5.11181 -23.4912
lclavicle 6.24557e-014 -6.23687e-015
lhumerus -32.6021 8.86656 82.0057
lradius 32.8253
lwrist -7.23326
lhand -19.0756 22.6652
lfingers 7.12502
lthumb 7.23215 52.5217
rfemur -11.0841 1.08955 18.3173
rtibia 32.9327
rfoot -14.2492 4.11628
rtoes 0.5567
lfemur -9.23015 -5.7294 -20.0565
ltibia 34.2887
lfoot -17.7715 -18.3163
ltoes -11.3782
311
root 5.43664 17.8158 6.82451 355.065 38.3548 358.913
lowerback 11.8504 1.21872 -0.956003
upperback 1.33859 1.54813 0.593153
thorax -5.28326 0.79704 0.908465
lowerneck -9.37771 -10.1003 -14.1221
upperneck 32.9446 -15.4122 12.2494
head 15.2639 -6.84685 4.98444
rclavicle 4.1261e-014 1.44119e-015
rhumerus -32.4609 -10.9499 -76.7084
rradius 37.7996
rwrist -0.610777
rhand -20.9709 6.37692
rfingers 7.12502
rthumb 5.40243 -23.5342
lclavicle 4.1261e-014 1.44119e-015
lhumerus -32.5009 9.12019 82.0963
lradius 32.4472
lwrist -7.82128
lhand -19.1467 23.7347
lfingers 7.12502
lthumb 7.16352 53.5934
rfemur -11.1942 0.693738 18.6154
rtibia 33.3061
rfoot -14.6914 4.65175
rtoes -1.66639
lfemur -9.21664 -5.87125 -20.4851
ltibia 33.7644
lfoot -17.9361 -18.2646
ltoes -10.1527
312
root 5.41856 17.8065 6.8603 354.952 37.8526 358.792
lowerback 11.857 1.19053 -0.937857
upperback 1.29994 1.51923 0.710148
thorax -5.32972 0.783728 1.02493
lowerneck -9.24774 -10.102 -14.1532
upperneck 33.0527 -15.4083 12.1558
head 15.2777 -6.86546 4.95972
rclavicle 3.52323e-014 -6.78353e-015
rhumerus -32.3975 -11.0122 -76.4009
rradius 37.6967
rwrist -0.306658
rhand -21.2806 6.55641
rfingers 7.12502
rthumb 5.10338 -23.3621
lclavicle 3.52323e-014 -6.78353e-015
lhumerus -32.673 7.95204 82.8149
lradius 32.8841
lwrist -6.50524
lhand -20.1761 25.6369
lfingers 7.12502
lthumb 6.1698 55.527
rfemur -11.3235 0.459843 18.8196
rtibia 33.6226
rfoot -14.894 5.36855
rtoes -1.36639
lfemur -9.21621 -6.02374 -20.9211
ltibia 33.3376
lfoot -18.3435 -17.9019
ltoes -10.4713
